<svg width="38" height="38" viewBox="0 0 38 38" fill="none" xmlns="http://www.w3.org/2000/svg">
<path fill-rule="evenodd" clip-rule="evenodd" d="M26.4995 13.2403L12.5791 25.9442L11.4902 24.751L25.4106 12.0471L26.4995 13.2403Z" fill="white"/>
<path fill-rule="evenodd" clip-rule="evenodd" d="M24.8137 12.5918C22.0077 15.1526 21.9668 19.7127 24.3681 22.344L24.9126 22.9406L26.1058 21.8517L25.5613 21.2551C23.7381 19.2573 23.7808 15.7214 25.9027 13.785L26.4989 13.2408L25.41 12.0476L24.8137 12.5918Z" fill="white"/>
<path fill-rule="evenodd" clip-rule="evenodd" d="M25.9032 13.7844C23.0972 16.3452 18.5522 15.9701 16.1509 13.3388L15.6064 12.7422L16.7996 11.6533L17.3441 12.2499C19.1673 14.2477 22.6924 14.5276 24.8142 12.5912L25.4105 12.0471L26.4994 13.2403L25.9032 13.7844Z" fill="white"/>
</svg>
